#!OML:ASF Y:\EmotionMaleHayes\Project 1\Capture day 1\Session 1\Male1.ASF
:FULLY-SPECIFIED
:DEGREES
508
root -18.5447 17.0348 -14.2063 263.367 85.4718 258.386
lowerback 13.999 3.48897 -9.06934
upperback 7.27119 3.98359 -4.61444
thorax -0.325048 2.06965 -0.333592
lowerneck -21.1933 -4.54327 -2.51339
upperneck 32.5483 -7.85064 7.97348
head 15.4879 -2.21173 2.34619
rclavicle -3.26007e-014 -3.18055e-014
rhumerus -41.2114 18.8045 -95.5081
rradius 53.2866
rwrist -1.52492
rhand -16.3725 -33.0266
rfingers 7.12502
rthumb 9.8408 -62.7766
lclavicle -3.26007e-014 -3.18055e-014
lhumerus -30.9919 -23.3607 60.5508
lradius 49.0281
lwrist 5.49712
lhand -23.1167 -26.7925
lfingers 7.12502
lthumb 3.33042 3.16125
rfemur -2.04873 -8.80143 13.8269
rtibia 19.1102
rfoot -18.9986 -14.9891
rtoes 17.0449
lfemur -12.548 7.06264 -11.7792
ltibia 27.1218
lfoot -19.3357 14.9471
ltoes -10.7327
509
root -18.4853 17.041 -14.2482 263.628 85.7491 258.794
lowerback 13.9502 3.41396 -9.33035
upperback 7.26591 3.8605 -4.62838
thorax -0.30759 2.00203 -0.183866
lowerneck -20.9274 -4.58458 -2.60588
upperneck 32.4575 -7.8932 8.04273
head 15.3954 -2.24151 2.38292
rclavicle -2.46493e-014 -5.40694e-014
rhumerus -41.8039 18.2292 -95.0964
rradius 52.4586
rwrist -2.39364
rhand -17.1426 -33.2641
rfingers 7.12502
rthumb 9.09778 -63.0478
lclavicle -2.46493e-014 -5.40694e-014
lhumerus -29.3691 -23.4641 59.669
lradius 49.1589
lwrist 5.00516
lhand -22.8002 -26.0796
lfingers 7.12502
lthumb 3.63601 3.86914
rfemur -2.57419 -8.95965 13.8015
rtibia 19.6169
rfoot -18.7179 -14.7467
rtoes 15.0204
lfemur -11.7463 6.88972 -12.2785
ltibia 26.3714
lfoot -19.0961 14.9665
ltoes -11.1841
510
root -18.4301 17.0458 -14.2879 264.073 85.9745 259.397
lowerback 14.0552 3.3578 -9.41933
upperback 7.19049 3.75298 -4.70543
thorax -0.435755 1.95336 -0.209024
lowerneck -20.7363 -4.54476 -2.55474
upperneck 32.446 -7.86844 8.10651
head 15.346 -2.21869 2.40831
rclavicle -8.74653e-015 -1.43125e-014
rhumerus -42.2698 17.4075 -94.6867
rradius 51.5243
rwrist -2.83337
rhand -16.7343 -34.4741
rfingers 7.12502
rthumb 9.49176 -64.2403
lclavicle -8.74653e-015 -1.43125e-014
lhumerus -27.647 -23.6157 58.7344
lradius 49.0979
lwrist 4.09722
lhand -22.5921 -25.2713
lfingers 7.12502
lthumb 3.83697 4.67386
rfemur -3.10855 -9.10558 13.8363
rtibia 20.1013
rfoot -18.6592 -14.4009
rtoes 14.3243
lfemur -10.9893 6.70541 -12.6949
ltibia 25.7535
lfoot -18.9687 14.9608
ltoes -10.768
511
root -18.376 17.0525 -14.3264 264.139 85.9943 259.612
lowerback 13.7525 3.22747 -9.42127
upperback 7.38205 3.64914 -4.63539
thorax -0.0671791 1.8873 -0.0931308
lowerneck -20.6458 -4.45248 -2.50377
upperneck 32.285 -7.73219 8.06667
head 15.2333 -2.17147 2.40361
rclavicle 3.10104e-014 3.97569e-014
rhumerus -42.3658 16.7938 -94.0087
rradius 50.6557
rwrist -2.86123
rhand -16.4072 -35.011
rfingers 7.12502
rthumb 9.80733 -64.7626
lclavicle 3.10104e-014 3.97569e-014
lhumerus -25.609 -23.4077 57.8112
lradius 48.8683
lwrist 3.0472
lhand -22.3902 -24.4512
lfingers 7.12502
lthumb 4.03202 5.49036
rfemur -3.61199 -9.1091 14.1464
rtibia 20.5414
rfoot -18.7926 -14.2044
rtoes 15.0079
lfemur -10.4189 6.53877 -12.8558
ltibia 25.4771
lfoot -19.2126 15.0122
ltoes -9.98585
512
root -18.3171 17.0583 -14.3641 263.089 86.1702 258.706
lowerback 13.8926 3.13028 -9.61274
upperback 7.30248 3.46635 -4.57331
thorax -0.226565 1.79447 0.0933123
lowerneck -20.5903 -4.43425 -2.58348
upperneck 32.3579 -7.66949 8.04117
head 15.2516 -2.15739 2.42212
rclavicle 3.10104e-014 -3.18055e-015
rhumerus -43.0575 16.2698 -93.448
rradius 50.0549
rwrist -2.97545
rhand -16.8014 -34.7639
rfingers 7.12502
rthumb 9.42699 -64.5331
lclavicle 3.10104e-014 -3.18055e-015
lhumerus -23.9901 -23.2606 57.054
lradius 48.6468
lwrist 1.83631
lhand -22.2425 -23.939
lfingers 7.12502
lthumb 4.17457 5.99988
rfemur -4.16179 -8.77205 14.3302
rtibia 21.2003
rfoot -19.2549 -14.1518
rtoes 16.652
lfemur -9.75098 6.27259 -13.2143
ltibia 24.9653
lfoot -19.3974 15.0084
ltoes -7.96271
513
root -18.2575 17.0617 -14.4001 262.376 86.6619 258.193
lowerback 13.5586 3.11769 -10.0436
upperback 7.55592 3.49421 -4.64913
thorax 0.214008 1.78687 0.271736
lowerneck -20.5643 -4.45648 -2.52197
upperneck 32.0542 -7.7479 8.11969
head 15.1119 -2.18657 2.41788
rclavicle -4.13472e-014 3.33958e-014
rhumerus -43.1473 15.5136 -92.7725
rradius 49.3783
rwrist -3.77335
rhand -17.0772 -34.6337
rfingers 7.12502
rthumb 9.16086 -64.4147
lclavicle -4.13472e-014 3.33958e-014
lhumerus -21.7603 -23.1126 56.1256
lradius 48.4375
lwrist 0.552792
lhand -21.9814 -23.9261
lfingers 7.12502
lthumb 4.4267 6.00767
rfemur -4.70278 -8.50021 14.0826
rtibia 21.8112
rfoot -19.5903 -13.8364
rtoes 17.848
lfemur -9.01109 6.04353 -13.9459
ltibia 24.3807
lfoot -19.5095 15.048
ltoes -7.51683
514
root -18.2012 17.0652 -14.4355 261.988 87.0386 258.034
lowerback 13.6953 3.06053 -10.1658
upperback 7.53201 3.39256 -4.84885
thorax 0.133108 1.74547 0.134663
lowerneck -20.5043 -4.46231 -2.44631
upperneck 32.0412 -7.83546 8.27138
head 15.1062 -2.19262 2.45254
rclavicle -3.97569e-014 1.27222e-014
rhumerus -43.5002 14.5054 -92.2957
rradius 48.7329
rwrist -4.42389
rhand -16.3551 -35.1061
rfingers 7.12502
rthumb 9.85755 -64.8554
lclavicle -3.97569e-014 1.27222e-014
lhumerus -19.9368 -23.1717 55.1469
lradius 48.2927
lwrist -0.63912
lhand -21.1966 -23.8795
lfingers 7.12502
lthumb 5.18455 6.03705
rfemur -5.14822 -8.46649 13.9276
rtibia 22.0749
rfoot -19.3349 -13.5394
rtoes 17.7806
lfemur -8.47475 5.94552 -14.5453
ltibia 24.2389
lfoot -19.6807 15.1738
ltoes -8.49903
515
root -18.1421 17.0701 -14.4694 259.605 87.1913 255.836
lowerback 13.5521 2.97063 -10.4514
upperback 7.6046 3.27097 -4.71696
thorax 0.280215 1.66651 0.456832
lowerneck -20.3416 -4.49253 -2.63569
upperneck 31.9639 -7.85545 8.41637
head 15.0528 -2.21136 2.54171
rclavicle -7.15625e-015 -1.27222e-014
rhumerus -43.8567 13.8469 -91.5315
rradius 48.1829
rwrist -4.41419
rhand -15.4252 -36.0162
rfingers 7.12502
rthumb 10.7547 -65.7209
lclavicle -7.15625e-015 -1.27222e-014
lhumerus -18.1005 -22.6202 54.639
lradius 47.8288
lwrist -2.22584
lhand -19.7908 -22.3532
lfingers 7.12502
lthumb 6.54181 7.5258
rfemur -5.53875 -8.47969 14.0593
rtibia 22.28
rfoot -19.0322 -13.5734
rtoes 16.8315
lfemur -7.9516 5.76213 -14.8886
ltibia 24.0401
lfoot -19.7887 15.3513
ltoes -9.18208
516
root -18.0812 17.0753 -14.5018 257.241 87.3402 253.6
lowerback 13.3936 2.87968 -10.5712
upperback 7.65362 3.16963 -4.71347
thorax 0.4228 1.60693 0.549998
lowerneck -20.2083 -4.50141 -2.5824
upperneck 31.8728 -7.92924 8.55519
head 14.9934 -2.22196 2.57505
rclavicle 1.19271e-014 -3.81667e-014
rhumerus -44.2427 13.2561 -91.1116
rradius 47.4319
rwrist -3.92003
rhand -15.4786 -36.2123
rfingers 7.12502
rthumb 10.7031 -65.9196
lclavicle 1.19271e-014 -3.81667e-014
lhumerus -16.1583 -22.1372 54.021
lradius 47.3693
lwrist -4.01382
lhand -19.6359 -22.7154
lfingers 7.12502
lthumb 6.6913 7.15889
rfemur -6.05129 -8.39421 14.2222
rtibia 22.7264
rfoot -19.1303 -13.6524
rtoes 15.7167
lfemur -7.32732 5.51772 -15.2078
ltibia 23.533
lfoot -19.9267 15.3756
ltoes -8.96744
517
root -18.0196 17.0792 -14.5351 256.967 87.5497 253.48
lowerback 13.2909 2.81915 -10.6547
upperback 7.70241 3.10733 -4.7779
thorax 0.53783 1.5718 0.542959
lowerneck -20.415 -4.5538 -2.13097
upperneck 32.0878 -8.05384 8.15419
head 15.1025 -2.26242 2.30839
rclavicle -7.95139e-015 -6.67916e-014
rhumerus -44.6054 12.6529 -90.7156
rradius 46.637
rwrist -3.38661
rhand -15.6983 -35.6838
rfingers 7.12502
rthumb 10.4912 -65.402
lclavicle -7.95139e-015 -6.67916e-014
lhumerus -14.3203 -21.8926 53.3699
lradius 47.0954
lwrist -5.49315
lhand -19.6062 -22.5502
lfingers 7.12502
lthumb 6.71996 7.32317
rfemur -6.58841 -8.27197 14.3208
rtibia 23.1479
rfoot -19.0584 -13.8036
rtoes 14.1305
lfemur -6.65185 5.45124 -15.5534
ltibia 23.0669
lfoot -20.1089 15.2594
ltoes -8.01369
518
root -17.9591 17.0797 -14.5695 256.343 87.8389 252.965
lowerback 13.2237 2.79109 -10.8251
upperback 7.6723 3.05989 -4.8421
thorax 0.545221 1.54548 0.577289
lowerneck -20.6001 -4.72911 -1.60871
upperneck 32.4052 -8.30671 7.50503
head 15.2412 -2.38029 1.90171
rclavicle 8.74653e-015 -4.13472e-014
rhumerus -45.0782 11.9378 -90.2059
rradius 46.0374
rwrist -3.08935
rhand -15.5806 -35.2964
rfingers 7.12502
rthumb 10.6047 -65.0088
lclavicle 8.74653e-015 -4.13472e-014
lhumerus -12.6515 -21.7072 52.853
lradius 46.8079
lwrist -6.91497
lhand -19.2053 -22.2781
lfingers 7.12502
lthumb 7.10699 7.58255
rfemur -7.16335 -8.32285 14.2701
rtibia 23.5258
rfoot -19.0002 -13.8256
rtoes 14.1155
lfemur -6.11085 5.55961 -16.0073
ltibia 22.8011
lfoot -20.1561 15.2666
ltoes -7.22583
519
root -17.909 17.0785 -14.601 251.669 88.1009 248.286
lowerback 13.2586 2.65641 -11.1307
upperback 7.51273 2.81481 -4.79472
thorax 0.366115 1.41956 0.821826
lowerneck -20.3924 -4.76473 -1.64057
upperneck 32.414 -8.29944 7.37958
head 15.1893 -2.40485 1.85882
rclavicle -3.18055e-015 4.6118e-014
rhumerus -45.6931 11.9993 -89.8724
rradius 45.5438
rwrist -3.83935
rhand -16.1626 -35.3496
rfingers 7.12502
rthumb 10.0433 -65.0899
lclavicle -3.18055e-015 4.6118e-014
lhumerus -11.3235 -21.0218 52.6758
lradius 46.3781
lwrist -8.60977
lhand -18.3863 -22.0464
lfingers 7.12502
lthumb 7.8975 7.78606
rfemur -7.84761 -8.3863 14.2116
rtibia 23.9473
rfoot -19.2676 -13.6256
rtoes 15.7979
lfemur -5.84351 5.48666 -16.5095
ltibia 22.6598
lfoot -20.2129 15.3198
ltoes -6.87699
520
root -17.8352 17.0882 -14.6416 260.733 88.3324 257.769
lowerback 13.0647 2.65755 -11.2245
upperback 7.70552 2.86868 -4.79304
thorax 0.672295 1.43035 0.880801
lowerneck -20.1966 -4.70705 -1.69176
upperneck 32.181 -8.25085 7.57902
head 15.049 -2.37756 1.95698
rclavicle -7.15625e-015 -1.59028e-014
rhumerus -45.9557 12.1792 -89.703
rradius 44.998
rwrist -4.97728
rhand -17.036 -35.2749
rfingers 7.12502
rthumb 9.20063 -65.0542
lclavicle -7.15625e-015 -1.59028e-014
lhumerus -9.5515 -20.3066 52.406
lradius 45.872
lwrist -9.92855
lhand -17.8958 -21.8289
lfingers 7.12502
lthumb 8.37089 7.98526
rfemur -7.9463 -8.19108 14.2713
rtibia 24.1113
rfoot -19.3082 -13.2553
rtoes 16.1323
lfemur -4.66896 5.4675 -16.7907
ltibia 21.9197
lfoot -20.3242 15.5608
ltoes -7.42347
521
root -17.7946 17.0822 -14.66 245.89 88.1662 242.903
lowerback 12.861 2.39024 -11.2341
upperback 7.83597 2.56615 -4.68037
thorax 0.945797 1.2629 1.05686
lowerneck -20.1857 -4.67277 -1.6238
upperneck 32.0355 -8.24265 7.63546
head 14.9792 -2.36566 1.96596
rclavicle -6.36111e-015 1.08139e-013
rhumerus -46.0716 11.8897 -89.2381
rradius 44.555
rwrist -4.8103
rhand -16.7002 -35.0187
rfingers 7.12502
rthumb 9.52462 -64.7834
lclavicle -6.36111e-015 1.08139e-013
lhumerus -7.79848 -19.7384 52.1563
lradius 45.659
lwrist -10.5885
lhand -17.3694 -21.486
lfingers 7.12502
lthumb 8.8789 8.30724
rfemur -8.60158 -8.35435 14.6729
rtibia 24.3563
rfoot -19.5658 -13.5623
rtoes 16.21
lfemur -4.53177 5.1975 -16.8278
ltibia 21.831
lfoot -20.5671 15.4285
ltoes -8.04687
522
root -17.7368 17.0799 -14.6863 239.27 88.2112 236.453
lowerback 12.6968 2.25844 -11.4018
upperback 7.94682 2.41932 -4.62619
thorax 1.16463 1.1726 1.23264
lowerneck -20.1111 -4.64181 -1.54441
upperneck 31.9236 -8.22886 7.65794
head 14.9075 -2.35417 1.96192
rclavicle -1.82882e-014 3.97569e-014
rhumerus -46.3281 11.3614 -88.6434
rradius 44.2451
rwrist -4.16644
rhand -15.8074 -34.9853
rfingers 7.12502
rthumb 10.3859 -64.7088
lclavicle -1.82882e-014 3.97569e-014
lhumerus -6.34491 -19.1762 52.0397
lradius 45.5482
lwrist -11.2817
lhand -16.6794 -21.3076
lfingers 7.12502
lthumb 9.54466 8.45624
rfemur -9.04007 -8.34004 14.8198
rtibia 24.5543
rfoot -19.6373 -13.6345
rtoes 16.0738
lfemur -3.99799 5.1256 -17.0535
ltibia 21.6178
lfoot -20.9332 15.3355
ltoes -8.59436
